{
	"asset":{
		"generator":"Khronos glTF Blender I/O v4.4.56",
		"version":"2.0"
	},
	"scene":0,
	"scenes":[
		{
			"name":"crown",
			"nodes":[
				0
			]
		},
		{
			"name":"full-tree",
			"nodes":[
				1,
				2
			]
		},
		{
			"name":"trunk1",
			"nodes":[
				3
			]
		},
		{
			"name":"trunk2",
			"nodes":[
				4
			]
		},
		{
			"name":"trunk3",
			"nodes":[
				5
			]
		}
	],
	"nodes":[
		{
			"mesh":0,
			"name":"Quad Sphere.002",
			"scale":[
				1.4078445434570312,
				1.4078445434570312,
				1.4078445434570312
			],
			"translation":[
				0.09431679546833038,
				4.171523094177246,
				0.061714909970760345
			]
		},
		{
			"mesh":1,
			"name":"Quad Sphere.001",
			"scale":[
				1.4078445434570312,
				1.4078445434570312,
				1.4078445434570312
			],
			"translation":[
				0.09431679546833038,
				4.171523094177246,
				0.061714909970760345
			]
		},
		{
			"mesh":2,
			"name":"Cylinder",
			"scale":[
				0.21310128271579742,
				1.5524381399154663,
				0.21310128271579742
			],
			"translation":[
				0.0013764053583145142,
				1.568955659866333,
				-0.0019628796726465225
			]
		},
		{
			"mesh":3,
			"name":"trunk1.001",
			"scale":[
				0.21310128271579742,
				1.5524381399154663,
				0.21310128271579742
			],
			"translation":[
				0.0013764053583145142,
				1.568955659866333,
				-0.0019628796726465225
			]
		},
		{
			"mesh":4,
			"name":"trunk2.001",
			"scale":[
				0.21310128271579742,
				1.5524381399154663,
				0.21310128271579742
			],
			"translation":[
				0.0013764053583145142,
				1.568955659866333,
				-0.0019628796726465225
			]
		},
		{
			"mesh":5,
			"name":"trunk3.001",
			"scale":[
				0.21310128271579742,
				1.5524381399154663,
				0.21310128271579742
			],
			"translation":[
				0.0013764053583145142,
				1.568955659866333,
				-0.0019628796726465225
			]
		}
	],
	"materials":[
		{
			"doubleSided":true,
			"name":"Material.004",
			"pbrMetallicRoughness":{
				"baseColorFactor":[
					0.043965429067611694,
					0.20816703140735626,
					0.06204112619161606,
					1
				],
				"metallicFactor":0,
				"roughnessFactor":0.5
			}
		},
		{
			"doubleSided":true,
			"name":"Material.001",
			"pbrMetallicRoughness":{
				"baseColorFactor":[
					0.043965429067611694,
					0.20816703140735626,
					0.06204112619161606,
					1
				],
				"metallicFactor":0,
				"roughnessFactor":0.5
			}
		},
		{
			"doubleSided":true,
			"name":"Material.002",
			"pbrMetallicRoughness":{
				"baseColorFactor":[
					0.14104272425174713,
					0.05837561562657356,
					0.013788599520921707,
					1
				],
				"metallicFactor":0,
				"roughnessFactor":0.5
			}
		},
		{
			"doubleSided":true,
			"name":"Material.005",
			"pbrMetallicRoughness":{
				"baseColorFactor":[
					0.14104272425174713,
					0.05837561562657356,
					0.013788599520921707,
					1
				],
				"metallicFactor":0,
				"roughnessFactor":0.5
			}
		},
		{
			"doubleSided":true,
			"name":"Material.006",
			"pbrMetallicRoughness":{
				"baseColorFactor":[
					0.14104272425174713,
					0.05837561562657356,
					0.013788599520921707,
					1
				],
				"metallicFactor":0,
				"roughnessFactor":0.5
			}
		},
		{
			"doubleSided":true,
			"name":"Material.007",
			"pbrMetallicRoughness":{
				"baseColorFactor":[
					0.14104272425174713,
					0.05837561562657356,
					0.013788599520921707,
					1
				],
				"metallicFactor":0,
				"roughnessFactor":0.5
			}
		}
	],
	"meshes":[
		{
			"name":"Quad Sphere.002",
			"primitives":[
				{
					"attributes":{
						"POSITION":0,
						"NORMAL":1
					},
					"indices":2,
					"material":0
				}
			]
		},
		{
			"name":"Quad Sphere.001",
			"primitives":[
				{
					"attributes":{
						"POSITION":3,
						"NORMAL":4
					},
					"indices":2,
					"material":1
				}
			]
		},
		{
			"name":"Cylinder",
			"primitives":[
				{
					"attributes":{
						"POSITION":5,
						"NORMAL":6,
						"TEXCOORD_0":7
					},
					"indices":8,
					"material":2
				}
			]
		},
		{
			"name":"Cylinder.004",
			"primitives":[
				{
					"attributes":{
						"POSITION":9,
						"NORMAL":10,
						"TEXCOORD_0":11
					},
					"indices":12,
					"material":3
				}
			]
		},
		{
			"name":"Cylinder.005",
			"primitives":[
				{
					"attributes":{
						"POSITION":13,
						"NORMAL":14,
						"TEXCOORD_0":15
					},
					"indices":16,
					"material":4
				}
			]
		},
		{
			"name":"Cylinder.006",
			"primitives":[
				{
					"attributes":{
						"POSITION":17,
						"NORMAL":18,
						"TEXCOORD_0":19
					},
					"indices":20,
					"material":5
				}
			]
		}
	],
	"accessors":[
		{
			"bufferView":0,
			"componentType":5126,
			"count":96,
			"max":[
				1.2844030857086182,
				1.284402847290039,
				1.2844029664993286
			],
			"min":[
				-1.284402847290039,
				-1.2844030857086182,
				-1.2844029664993286
			],
			"type":"VEC3"
		},
		{
			"bufferView":1,
			"componentType":5126,
			"count":96,
			"type":"VEC3"
		},
		{
			"bufferView":2,
			"componentType":5123,
			"count":144,
			"type":"SCALAR"
		},
		{
			"bufferView":3,
			"componentType":5126,
			"count":96,
			"max":[
				1.2844030857086182,
				1.284402847290039,
				1.2844029664993286
			],
			"min":[
				-1.284402847290039,
				-1.2844030857086182,
				-1.2844029664993286
			],
			"type":"VEC3"
		},
		{
			"bufferView":4,
			"componentType":5126,
			"count":96,
			"type":"VEC3"
		},
		{
			"bufferView":5,
			"componentType":5126,
			"count":134,
			"max":[
				1,
				1,
				1
			],
			"min":[
				-1,
				-1,
				-1
			],
			"type":"VEC3"
		},
		{
			"bufferView":6,
			"componentType":5126,
			"count":134,
			"type":"VEC3"
		},
		{
			"bufferView":7,
			"componentType":5126,
			"count":134,
			"type":"VEC2"
		},
		{
			"bufferView":8,
			"componentType":5123,
			"count":336,
			"type":"SCALAR"
		},
		{
			"bufferView":9,
			"componentType":5126,
			"count":94,
			"max":[
				1,
				-0.2508586049079895,
				1
			],
			"min":[
				-1,
				-1,
				-1
			],
			"type":"VEC3"
		},
		{
			"bufferView":10,
			"componentType":5126,
			"count":94,
			"type":"VEC3"
		},
		{
			"bufferView":11,
			"componentType":5126,
			"count":94,
			"type":"VEC2"
		},
		{
			"bufferView":12,
			"componentType":5123,
			"count":216,
			"type":"SCALAR"
		},
		{
			"bufferView":13,
			"componentType":5126,
			"count":54,
			"max":[
				1,
				0.5064486265182495,
				1
			],
			"min":[
				-0.9238795042037964,
				-0.27648603916168213,
				-1
			],
			"type":"VEC3"
		},
		{
			"bufferView":14,
			"componentType":5126,
			"count":54,
			"type":"VEC3"
		},
		{
			"bufferView":15,
			"componentType":5126,
			"count":54,
			"type":"VEC2"
		},
		{
			"bufferView":16,
			"componentType":5123,
			"count":96,
			"type":"SCALAR"
		},
		{
			"bufferView":17,
			"componentType":5126,
			"count":94,
			"max":[
				1,
				1,
				1
			],
			"min":[
				-1,
				0.4702244997024536,
				-1
			],
			"type":"VEC3"
		},
		{
			"bufferView":18,
			"componentType":5126,
			"count":94,
			"type":"VEC3"
		},
		{
			"bufferView":19,
			"componentType":5126,
			"count":94,
			"type":"VEC2"
		},
		{
			"bufferView":20,
			"componentType":5123,
			"count":216,
			"type":"SCALAR"
		}
	],
	"bufferViews":[
		{
			"buffer":0,
			"byteLength":1152,
			"byteOffset":0,
			"target":34962
		},
		{
			"buffer":0,
			"byteLength":1152,
			"byteOffset":1152,
			"target":34962
		},
		{
			"buffer":0,
			"byteLength":288,
			"byteOffset":2304,
			"target":34963
		},
		{
			"buffer":0,
			"byteLength":1152,
			"byteOffset":2592,
			"target":34962
		},
		{
			"buffer":0,
			"byteLength":1152,
			"byteOffset":3744,
			"target":34962
		},
		{
			"buffer":0,
			"byteLength":1608,
			"byteOffset":4896,
			"target":34962
		},
		{
			"buffer":0,
			"byteLength":1608,
			"byteOffset":6504,
			"target":34962
		},
		{
			"buffer":0,
			"byteLength":1072,
			"byteOffset":8112,
			"target":34962
		},
		{
			"buffer":0,
			"byteLength":672,
			"byteOffset":9184,
			"target":34963
		},
		{
			"buffer":0,
			"byteLength":1128,
			"byteOffset":9856,
			"target":34962
		},
		{
			"buffer":0,
			"byteLength":1128,
			"byteOffset":10984,
			"target":34962
		},
		{
			"buffer":0,
			"byteLength":752,
			"byteOffset":12112,
			"target":34962
		},
		{
			"buffer":0,
			"byteLength":432,
			"byteOffset":12864,
			"target":34963
		},
		{
			"buffer":0,
			"byteLength":648,
			"byteOffset":13296,
			"target":34962
		},
		{
			"buffer":0,
			"byteLength":648,
			"byteOffset":13944,
			"target":34962
		},
		{
			"buffer":0,
			"byteLength":432,
			"byteOffset":14592,
			"target":34962
		},
		{
			"buffer":0,
			"byteLength":192,
			"byteOffset":15024,
			"target":34963
		},
		{
			"buffer":0,
			"byteLength":1128,
			"byteOffset":15216,
			"target":34962
		},
		{
			"buffer":0,
			"byteLength":1128,
			"byteOffset":16344,
			"target":34962
		},
		{
			"buffer":0,
			"byteLength":752,
			"byteOffset":17472,
			"target":34962
		},
		{
			"buffer":0,
			"byteLength":432,
			"byteOffset":18224,
			"target":34963
		}
	],
	"buffers":[
		{
			"byteLength":18656,
			"uri":"tree.bin"
		}
	]
}
