{
	"asset":{
		"generator":"Khronos glTF Blender I/O v4.4.56",
		"version":"2.0"
	},
	"scene":0,
	"scenes":[
		{
			"name":"apple",
			"nodes":[
				0,
				1,
				2
			]
		},
		{
			"name":"eaten_apple",
			"nodes":[
				3,
				4,
				5
			]
		},
		{
			"name":"eaten_apple_2",
			"nodes":[
				6,
				7,
				8
			]
		}
	],
	"nodes":[
		{
			"mesh":0,
			"name":"apple"
		},
		{
			"mesh":1,
			"name":"stalk",
			"scale":[
				0.09403201192617416,
				0.509669840335846,
				0.09464012831449509
			],
			"translation":[
				0,
				0.7963300347328186,
				0
			]
		},
		{
			"mesh":2,
			"name":"leaf",
			"rotation":[
				0.33936578035354614,
				-0.9350658655166626,
				0.03806137293577194,
				0.09504833817481995
			],
			"scale":[
				0.04182317852973938,
				0.4768297076225281,
				0.3121005594730377
			],
			"translation":[
				-0.22790995240211487,
				0.891016960144043,
				0
			]
		},
		{
			"mesh":3,
			"name":"stalk.001",
			"scale":[
				0.09403201192617416,
				0.509669840335846,
				0.09464012831449509
			],
			"translation":[
				0,
				0.7963300347328186,
				0
			]
		},
		{
			"mesh":4,
			"name":"leaf.001",
			"rotation":[
				0.33936578035354614,
				-0.9350658655166626,
				0.03806137293577194,
				0.09504833817481995
			],
			"scale":[
				0.04182317852973938,
				0.4768297076225281,
				0.3121005594730377
			],
			"translation":[
				-0.22790995240211487,
				0.891016960144043,
				0
			]
		},
		{
			"mesh":5,
			"name":"eaten_apple.001"
		},
		{
			"mesh":6,
			"name":"stalk.002",
			"scale":[
				0.09403201192617416,
				0.509669840335846,
				0.09464012831449509
			],
			"translation":[
				0,
				0.7963300347328186,
				0
			]
		},
		{
			"mesh":7,
			"name":"leaf.002",
			"rotation":[
				0.33936578035354614,
				-0.9350658655166626,
				0.03806137293577194,
				0.09504833817481995
			],
			"scale":[
				0.04182317852973938,
				0.4768297076225281,
				0.3121005594730377
			],
			"translation":[
				-0.22790995240211487,
				0.891016960144043,
				0
			]
		},
		{
			"mesh":8,
			"name":"finished_apple.002"
		}
	],
	"materials":[
		{
			"doubleSided":true,
			"name":"Material",
			"pbrMetallicRoughness":{
				"baseColorFactor":[
					0.8000937700271606,
					0.05185285210609436,
					0.0204217117279768,
					1
				],
				"metallicFactor":0,
				"roughnessFactor":0.5
			}
		},
		{
			"doubleSided":true,
			"name":"Material.002",
			"pbrMetallicRoughness":{
				"baseColorFactor":[
					0.19136783480644226,
					0.0766303539276123,
					0.04802325367927551,
					1
				],
				"metallicFactor":0,
				"roughnessFactor":0.5
			}
		},
		{
			"doubleSided":true,
			"name":"Material.001",
			"pbrMetallicRoughness":{
				"baseColorFactor":[
					0.06750833243131638,
					0.39915257692337036,
					0.0639706626534462,
					1
				],
				"metallicFactor":0,
				"roughnessFactor":0.5
			}
		},
		{
			"doubleSided":true,
			"name":"Material.006",
			"pbrMetallicRoughness":{
				"baseColorFactor":[
					0.19136783480644226,
					0.0766303539276123,
					0.04802325367927551,
					1
				],
				"metallicFactor":0,
				"roughnessFactor":0.5
			}
		},
		{
			"doubleSided":true,
			"name":"Material.010",
			"pbrMetallicRoughness":{
				"baseColorFactor":[
					0.06750833243131638,
					0.39915257692337036,
					0.0639706626534462,
					1
				],
				"metallicFactor":0,
				"roughnessFactor":0.5
			}
		},
		{
			"doubleSided":true,
			"name":"Material.018",
			"pbrMetallicRoughness":{
				"baseColorFactor":[
					0.8000937700271606,
					0.05185285210609436,
					0.0204217117279768,
					1
				],
				"metallicFactor":0,
				"roughnessFactor":0.5
			}
		},
		{
			"doubleSided":true,
			"name":"Material.017",
			"pbrMetallicRoughness":{
				"baseColorFactor":[
					1,
					0.7553931474685669,
					0,
					1
				],
				"metallicFactor":0,
				"roughnessFactor":0.5
			}
		},
		{
			"doubleSided":true,
			"name":"Material.016",
			"pbrMetallicRoughness":{
				"baseColorFactor":[
					0.3351666331291199,
					0.1711040437221527,
					0.015005987137556076,
					1
				],
				"metallicFactor":0,
				"roughnessFactor":0.5
			}
		},
		{
			"doubleSided":true,
			"name":"Material.011",
			"pbrMetallicRoughness":{
				"baseColorFactor":[
					0.19136783480644226,
					0.0766303539276123,
					0.04802325367927551,
					1
				],
				"metallicFactor":0,
				"roughnessFactor":0.5
			}
		},
		{
			"doubleSided":true,
			"name":"Material.012",
			"pbrMetallicRoughness":{
				"baseColorFactor":[
					0.06750833243131638,
					0.39915257692337036,
					0.0639706626534462,
					1
				],
				"metallicFactor":0,
				"roughnessFactor":0.5
			}
		},
		{
			"doubleSided":true,
			"name":"Material.013",
			"pbrMetallicRoughness":{
				"baseColorFactor":[
					0.8000937700271606,
					0.05185285210609436,
					0.0204217117279768,
					1
				],
				"metallicFactor":0,
				"roughnessFactor":0.5
			}
		},
		{
			"doubleSided":true,
			"name":"Material.015",
			"pbrMetallicRoughness":{
				"baseColorFactor":[
					0.3351666331291199,
					0.1711040437221527,
					0.015005987137556076,
					1
				],
				"metallicFactor":0,
				"roughnessFactor":0.5
			}
		}
	],
	"meshes":[
		{
			"name":"Quad Sphere",
			"primitives":[
				{
					"attributes":{
						"POSITION":0,
						"NORMAL":1
					},
					"indices":2,
					"material":0
				}
			]
		},
		{
			"name":"Sphere",
			"primitives":[
				{
					"attributes":{
						"POSITION":3,
						"NORMAL":4,
						"TEXCOORD_0":5
					},
					"indices":6,
					"material":1
				}
			]
		},
		{
			"name":"Sphere.001",
			"primitives":[
				{
					"attributes":{
						"POSITION":7,
						"NORMAL":8,
						"TEXCOORD_0":9
					},
					"indices":10,
					"material":2
				}
			]
		},
		{
			"name":"Sphere.003",
			"primitives":[
				{
					"attributes":{
						"POSITION":11,
						"NORMAL":12,
						"TEXCOORD_0":13
					},
					"indices":6,
					"material":3
				}
			]
		},
		{
			"name":"Sphere.002",
			"primitives":[
				{
					"attributes":{
						"POSITION":14,
						"NORMAL":15,
						"TEXCOORD_0":16
					},
					"indices":10,
					"material":4
				}
			]
		},
		{
			"name":"Quad Sphere.004",
			"primitives":[
				{
					"attributes":{
						"POSITION":17,
						"NORMAL":18,
						"TEXCOORD_0":19,
						"COLOR_0":20,
						"COLOR_1":21
					},
					"indices":22,
					"material":5
				},
				{
					"attributes":{
						"POSITION":23,
						"NORMAL":24,
						"TEXCOORD_0":25,
						"COLOR_0":26,
						"COLOR_1":27
					},
					"indices":28,
					"material":6
				},
				{
					"attributes":{
						"POSITION":29,
						"NORMAL":30,
						"TEXCOORD_0":31,
						"COLOR_0":32,
						"COLOR_1":33
					},
					"indices":34,
					"material":7
				}
			]
		},
		{
			"name":"Sphere.005",
			"primitives":[
				{
					"attributes":{
						"POSITION":35,
						"NORMAL":36,
						"TEXCOORD_0":37
					},
					"indices":6,
					"material":8
				}
			]
		},
		{
			"name":"Sphere.004",
			"primitives":[
				{
					"attributes":{
						"POSITION":38,
						"NORMAL":39,
						"TEXCOORD_0":40
					},
					"indices":10,
					"material":9
				}
			]
		},
		{
			"name":"Quad Sphere.003",
			"primitives":[
				{
					"attributes":{
						"POSITION":41,
						"NORMAL":42,
						"TEXCOORD_0":43,
						"COLOR_0":44,
						"COLOR_1":45
					},
					"indices":46,
					"material":10
				},
				{
					"attributes":{
						"POSITION":47,
						"NORMAL":48,
						"TEXCOORD_0":49,
						"COLOR_0":50,
						"COLOR_1":51
					},
					"indices":52,
					"material":11
				}
			]
		}
	],
	"accessors":[
		{
			"bufferView":0,
			"componentType":5126,
			"count":384,
			"max":[
				1.284296989440918,
				0.8705115914344788,
				1.2844104766845703
			],
			"min":[
				-1.2844643592834473,
				-1.1559641361236572,
				-1.2844020128250122
			],
			"type":"VEC3"
		},
		{
			"bufferView":1,
			"componentType":5126,
			"count":384,
			"type":"VEC3"
		},
		{
			"bufferView":2,
			"componentType":5123,
			"count":576,
			"type":"SCALAR"
		},
		{
			"bufferView":3,
			"componentType":5126,
			"count":64,
			"max":[
				2.3560097217559814,
				0.9505812525749207,
				0.8157719373703003
			],
			"min":[
				-0.6862878799438477,
				-1.0021553039550781,
				-0.8327602744102478
			],
			"type":"VEC3"
		},
		{
			"bufferView":4,
			"componentType":5126,
			"count":64,
			"type":"VEC3"
		},
		{
			"bufferView":5,
			"componentType":5126,
			"count":64,
			"type":"VEC2"
		},
		{
			"bufferView":6,
			"componentType":5123,
			"count":96,
			"type":"SCALAR"
		},
		{
			"bufferView":7,
			"componentType":5126,
			"count":194,
			"max":[
				1.758750557899475,
				0.9971818327903748,
				0.9936142563819885
			],
			"min":[
				-0.6014606952667236,
				-0.9939865469932556,
				-0.995446503162384
			],
			"type":"VEC3"
		},
		{
			"bufferView":8,
			"componentType":5126,
			"count":194,
			"type":"VEC3"
		},
		{
			"bufferView":9,
			"componentType":5126,
			"count":194,
			"type":"VEC2"
		},
		{
			"bufferView":10,
			"componentType":5123,
			"count":204,
			"type":"SCALAR"
		},
		{
			"bufferView":11,
			"componentType":5126,
			"count":64,
			"max":[
				2.3560097217559814,
				0.9505812525749207,
				0.8157719373703003
			],
			"min":[
				-0.6862878799438477,
				-1.0021553039550781,
				-0.8327602744102478
			],
			"type":"VEC3"
		},
		{
			"bufferView":12,
			"componentType":5126,
			"count":64,
			"type":"VEC3"
		},
		{
			"bufferView":13,
			"componentType":5126,
			"count":64,
			"type":"VEC2"
		},
		{
			"bufferView":14,
			"componentType":5126,
			"count":194,
			"max":[
				1.758750557899475,
				0.9971818327903748,
				0.9936142563819885
			],
			"min":[
				-0.6014606952667236,
				-0.9939865469932556,
				-0.995446503162384
			],
			"type":"VEC3"
		},
		{
			"bufferView":15,
			"componentType":5126,
			"count":194,
			"type":"VEC3"
		},
		{
			"bufferView":16,
			"componentType":5126,
			"count":194,
			"type":"VEC2"
		},
		{
			"bufferView":17,
			"componentType":5126,
			"count":320,
			"max":[
				1.284296989440918,
				0.8727395534515381,
				1.2844104766845703
			],
			"min":[
				-0.9057725071907043,
				-1.1559641361236572,
				-1.2844020128250122
			],
			"type":"VEC3"
		},
		{
			"bufferView":18,
			"componentType":5126,
			"count":320,
			"type":"VEC3"
		},
		{
			"bufferView":19,
			"componentType":5126,
			"count":320,
			"type":"VEC2"
		},
		{
			"bufferView":20,
			"componentType":5121,
			"count":320,
			"normalized":true,
			"type":"VEC4"
		},
		{
			"bufferView":21,
			"componentType":5123,
			"count":320,
			"normalized":true,
			"type":"VEC4"
		},
		{
			"bufferView":22,
			"componentType":5123,
			"count":480,
			"type":"SCALAR"
		},
		{
			"bufferView":23,
			"componentType":5126,
			"count":16,
			"max":[
				-0.17226575314998627,
				0.5428704023361206,
				0.33267244696617126
			],
			"min":[
				-0.914553701877594,
				-0.5185303688049316,
				-0.7082826495170593
			],
			"type":"VEC3"
		},
		{
			"bufferView":24,
			"componentType":5126,
			"count":16,
			"type":"VEC3"
		},
		{
			"bufferView":25,
			"componentType":5126,
			"count":16,
			"type":"VEC2"
		},
		{
			"bufferView":26,
			"componentType":5121,
			"count":16,
			"normalized":true,
			"type":"VEC4"
		},
		{
			"bufferView":27,
			"componentType":5123,
			"count":16,
			"normalized":true,
			"type":"VEC4"
		},
		{
			"bufferView":28,
			"componentType":5123,
			"count":24,
			"type":"SCALAR"
		},
		{
			"bufferView":29,
			"componentType":5126,
			"count":48,
			"max":[
				-0.17226575314998627,
				0.8048125505447388,
				0.8841652870178223
			],
			"min":[
				-0.914553701877594,
				-0.884860098361969,
				-1.0508620738983154
			],
			"type":"VEC3"
		},
		{
			"bufferView":30,
			"componentType":5126,
			"count":48,
			"type":"VEC3"
		},
		{
			"bufferView":31,
			"componentType":5126,
			"count":48,
			"type":"VEC2"
		},
		{
			"bufferView":32,
			"componentType":5121,
			"count":48,
			"normalized":true,
			"type":"VEC4"
		},
		{
			"bufferView":33,
			"componentType":5123,
			"count":48,
			"normalized":true,
			"type":"VEC4"
		},
		{
			"bufferView":34,
			"componentType":5123,
			"count":72,
			"type":"SCALAR"
		},
		{
			"bufferView":35,
			"componentType":5126,
			"count":64,
			"max":[
				2.3560097217559814,
				0.9505812525749207,
				0.8157719373703003
			],
			"min":[
				-0.6862878799438477,
				-1.0021553039550781,
				-0.8327602744102478
			],
			"type":"VEC3"
		},
		{
			"bufferView":36,
			"componentType":5126,
			"count":64,
			"type":"VEC3"
		},
		{
			"bufferView":37,
			"componentType":5126,
			"count":64,
			"type":"VEC2"
		},
		{
			"bufferView":38,
			"componentType":5126,
			"count":194,
			"max":[
				1.758750557899475,
				0.9971818327903748,
				0.9936142563819885
			],
			"min":[
				-0.6014606952667236,
				-0.9939865469932556,
				-0.995446503162384
			],
			"type":"VEC3"
		},
		{
			"bufferView":39,
			"componentType":5126,
			"count":194,
			"type":"VEC3"
		},
		{
			"bufferView":40,
			"componentType":5126,
			"count":194,
			"type":"VEC2"
		},
		{
			"bufferView":41,
			"componentType":5126,
			"count":168,
			"max":[
				1.0227489471435547,
				0.8880578875541687,
				1.3991901874542236
			],
			"min":[
				-0.8006530404090881,
				-1.1586452722549438,
				-0.6307607293128967
			],
			"type":"VEC3"
		},
		{
			"bufferView":42,
			"componentType":5126,
			"count":168,
			"type":"VEC3"
		},
		{
			"bufferView":43,
			"componentType":5126,
			"count":168,
			"type":"VEC2"
		},
		{
			"bufferView":44,
			"componentType":5121,
			"count":168,
			"normalized":true,
			"type":"VEC4"
		},
		{
			"bufferView":45,
			"componentType":5123,
			"count":168,
			"normalized":true,
			"type":"VEC4"
		},
		{
			"bufferView":46,
			"componentType":5123,
			"count":252,
			"type":"SCALAR"
		},
		{
			"bufferView":47,
			"componentType":5126,
			"count":216,
			"max":[
				1.0227489471435547,
				0.8145326972007751,
				1.3991901874542236
			],
			"min":[
				-0.8006530404090881,
				-0.9400879740715027,
				-0.6307607293128967
			],
			"type":"VEC3"
		},
		{
			"bufferView":48,
			"componentType":5126,
			"count":216,
			"type":"VEC3"
		},
		{
			"bufferView":49,
			"componentType":5126,
			"count":216,
			"type":"VEC2"
		},
		{
			"bufferView":50,
			"componentType":5121,
			"count":216,
			"normalized":true,
			"type":"VEC4"
		},
		{
			"bufferView":51,
			"componentType":5123,
			"count":216,
			"normalized":true,
			"type":"VEC4"
		},
		{
			"bufferView":52,
			"componentType":5123,
			"count":324,
			"type":"SCALAR"
		}
	],
	"bufferViews":[
		{
			"buffer":0,
			"byteLength":4608,
			"byteOffset":0,
			"target":34962
		},
		{
			"buffer":0,
			"byteLength":4608,
			"byteOffset":4608,
			"target":34962
		},
		{
			"buffer":0,
			"byteLength":1152,
			"byteOffset":9216,
			"target":34963
		},
		{
			"buffer":0,
			"byteLength":768,
			"byteOffset":10368,
			"target":34962
		},
		{
			"buffer":0,
			"byteLength":768,
			"byteOffset":11136,
			"target":34962
		},
		{
			"buffer":0,
			"byteLength":512,
			"byteOffset":11904,
			"target":34962
		},
		{
			"buffer":0,
			"byteLength":192,
			"byteOffset":12416,
			"target":34963
		},
		{
			"buffer":0,
			"byteLength":2328,
			"byteOffset":12608,
			"target":34962
		},
		{
			"buffer":0,
			"byteLength":2328,
			"byteOffset":14936,
			"target":34962
		},
		{
			"buffer":0,
			"byteLength":1552,
			"byteOffset":17264,
			"target":34962
		},
		{
			"buffer":0,
			"byteLength":408,
			"byteOffset":18816,
			"target":34963
		},
		{
			"buffer":0,
			"byteLength":768,
			"byteOffset":19224,
			"target":34962
		},
		{
			"buffer":0,
			"byteLength":768,
			"byteOffset":19992,
			"target":34962
		},
		{
			"buffer":0,
			"byteLength":512,
			"byteOffset":20760,
			"target":34962
		},
		{
			"buffer":0,
			"byteLength":2328,
			"byteOffset":21272,
			"target":34962
		},
		{
			"buffer":0,
			"byteLength":2328,
			"byteOffset":23600,
			"target":34962
		},
		{
			"buffer":0,
			"byteLength":1552,
			"byteOffset":25928,
			"target":34962
		},
		{
			"buffer":0,
			"byteLength":3840,
			"byteOffset":27480,
			"target":34962
		},
		{
			"buffer":0,
			"byteLength":3840,
			"byteOffset":31320,
			"target":34962
		},
		{
			"buffer":0,
			"byteLength":2560,
			"byteOffset":35160,
			"target":34962
		},
		{
			"buffer":0,
			"byteLength":1280,
			"byteOffset":37720,
			"target":34962
		},
		{
			"buffer":0,
			"byteLength":2560,
			"byteOffset":39000,
			"target":34962
		},
		{
			"buffer":0,
			"byteLength":960,
			"byteOffset":41560,
			"target":34963
		},
		{
			"buffer":0,
			"byteLength":192,
			"byteOffset":42520,
			"target":34962
		},
		{
			"buffer":0,
			"byteLength":192,
			"byteOffset":42712,
			"target":34962
		},
		{
			"buffer":0,
			"byteLength":128,
			"byteOffset":42904,
			"target":34962
		},
		{
			"buffer":0,
			"byteLength":64,
			"byteOffset":43032,
			"target":34962
		},
		{
			"buffer":0,
			"byteLength":128,
			"byteOffset":43096,
			"target":34962
		},
		{
			"buffer":0,
			"byteLength":48,
			"byteOffset":43224,
			"target":34963
		},
		{
			"buffer":0,
			"byteLength":576,
			"byteOffset":43272,
			"target":34962
		},
		{
			"buffer":0,
			"byteLength":576,
			"byteOffset":43848,
			"target":34962
		},
		{
			"buffer":0,
			"byteLength":384,
			"byteOffset":44424,
			"target":34962
		},
		{
			"buffer":0,
			"byteLength":192,
			"byteOffset":44808,
			"target":34962
		},
		{
			"buffer":0,
			"byteLength":384,
			"byteOffset":45000,
			"target":34962
		},
		{
			"buffer":0,
			"byteLength":144,
			"byteOffset":45384,
			"target":34963
		},
		{
			"buffer":0,
			"byteLength":768,
			"byteOffset":45528,
			"target":34962
		},
		{
			"buffer":0,
			"byteLength":768,
			"byteOffset":46296,
			"target":34962
		},
		{
			"buffer":0,
			"byteLength":512,
			"byteOffset":47064,
			"target":34962
		},
		{
			"buffer":0,
			"byteLength":2328,
			"byteOffset":47576,
			"target":34962
		},
		{
			"buffer":0,
			"byteLength":2328,
			"byteOffset":49904,
			"target":34962
		},
		{
			"buffer":0,
			"byteLength":1552,
			"byteOffset":52232,
			"target":34962
		},
		{
			"buffer":0,
			"byteLength":2016,
			"byteOffset":53784,
			"target":34962
		},
		{
			"buffer":0,
			"byteLength":2016,
			"byteOffset":55800,
			"target":34962
		},
		{
			"buffer":0,
			"byteLength":1344,
			"byteOffset":57816,
			"target":34962
		},
		{
			"buffer":0,
			"byteLength":672,
			"byteOffset":59160,
			"target":34962
		},
		{
			"buffer":0,
			"byteLength":1344,
			"byteOffset":59832,
			"target":34962
		},
		{
			"buffer":0,
			"byteLength":504,
			"byteOffset":61176,
			"target":34963
		},
		{
			"buffer":0,
			"byteLength":2592,
			"byteOffset":61680,
			"target":34962
		},
		{
			"buffer":0,
			"byteLength":2592,
			"byteOffset":64272,
			"target":34962
		},
		{
			"buffer":0,
			"byteLength":1728,
			"byteOffset":66864,
			"target":34962
		},
		{
			"buffer":0,
			"byteLength":864,
			"byteOffset":68592,
			"target":34962
		},
		{
			"buffer":0,
			"byteLength":1728,
			"byteOffset":69456,
			"target":34962
		},
		{
			"buffer":0,
			"byteLength":648,
			"byteOffset":71184,
			"target":34963
		}
	],
	"buffers":[
		{
			"byteLength":71832,
			"uri":"apple.bin"
		}
	]
}
